<svg width="217" height="45" viewBox="0 0 217 45" fill="none" xmlns="http://www.w3.org/2000/svg">
<path d="M10.9141 44.3906C7.80534 44.3906 5.29883 43.4222 3.39453 41.4854C1.50651 39.5485 0.5625 36.8385 0.5625 33.3555V13.5312C0.5625 9.36458 1.38444 6.17448 3.02832 3.96094C4.68848 1.7474 7.38216 0.640625 11.1094 0.640625C13.1439 0.640625 14.9505 1.01497 16.5293 1.76367C18.1243 2.51237 19.3776 3.63542 20.2891 5.13281C21.2005 6.61393 21.6562 8.48568 21.6562 10.748V18.1699H13.1113V11.8223C13.1113 10.5365 12.9486 9.67383 12.623 9.23438C12.2975 8.77865 11.793 8.55078 11.1094 8.55078C10.3118 8.55078 9.77474 8.84375 9.49805 9.42969C9.22135 9.99935 9.08301 10.7643 9.08301 11.7246V33.2334C9.08301 34.4215 9.25391 35.2598 9.5957 35.748C9.95378 36.2363 10.4583 36.4805 11.1094 36.4805C11.8418 36.4805 12.3545 36.1794 12.6475 35.5771C12.9567 34.9749 13.1113 34.1937 13.1113 33.2334V25.4941H21.7539V33.624C21.7539 37.4001 20.8018 40.1426 18.8975 41.8516C16.9932 43.5443 14.332 44.3906 10.9141 44.3906ZM34.8887 44.3906C31.4544 44.3906 28.8258 43.3571 27.0029 41.29C25.1963 39.2067 24.293 36.2038 24.293 32.2812V11.8711C24.293 8.19271 25.1882 5.40137 26.9785 3.49707C28.7852 1.59277 31.4219 0.640625 34.8887 0.640625C38.3555 0.640625 40.984 1.59277 42.7744 3.49707C44.5811 5.40137 45.4844 8.19271 45.4844 11.8711V32.2812C45.4844 36.2038 44.5729 39.2067 42.75 41.29C40.9434 43.3571 38.3229 44.3906 34.8887 44.3906ZM34.9619 36.4805C36.264 36.4805 36.915 35.2191 36.915 32.6963V11.7246C36.915 9.60872 36.2803 8.55078 35.0107 8.55078C33.5785 8.55078 32.8623 9.63314 32.8623 11.7979V32.7451C32.8623 34.0798 33.0251 35.04 33.3506 35.626C33.6761 36.1956 34.2132 36.4805 34.9619 36.4805ZM48.9512 44V1.03125H57.7891L61.7441 21.6123V1.03125H70.0449V44H61.6465L57.3496 22.5156V44H48.9512ZM77.54 44V9.2832H72.4375V1.03125H91.2363V9.2832H86.1338V44H77.54ZM91.8223 44L95.9727 1.03125H110.548L114.625 44H106.495L105.885 37.0664H100.709L100.172 44H91.8223ZM101.319 30.2061H105.226L103.346 8.35547H102.955L101.319 30.2061ZM127.271 44.3906C124.163 44.3906 121.656 43.4222 119.752 41.4854C117.864 39.5485 116.92 36.8385 116.92 33.3555V13.5312C116.92 9.36458 117.742 6.17448 119.386 3.96094C121.046 1.7474 123.74 0.640625 127.467 0.640625C129.501 0.640625 131.308 1.01497 132.887 1.76367C134.482 2.51237 135.735 3.63542 136.646 5.13281C137.558 6.61393 138.014 8.48568 138.014 10.748V18.1699H129.469V11.8223C129.469 10.5365 129.306 9.67383 128.98 9.23438C128.655 8.77865 128.15 8.55078 127.467 8.55078C126.669 8.55078 126.132 8.84375 125.855 9.42969C125.579 9.99935 125.44 10.7643 125.44 11.7246V33.2334C125.44 34.4215 125.611 35.2598 125.953 35.748C126.311 36.2363 126.816 36.4805 127.467 36.4805C128.199 36.4805 128.712 36.1794 129.005 35.5771C129.314 34.9749 129.469 34.1937 129.469 33.2334V25.4941H138.111V33.624C138.111 37.4001 137.159 40.1426 135.255 41.8516C133.351 43.5443 130.689 44.3906 127.271 44.3906ZM144.679 44V9.2832H139.576V1.03125H158.375V9.2832H153.272V44H144.679Z" fill="#FFBC00"/>
<path d="M182.423 44.3906C178.842 44.3906 176.205 43.3896 174.513 41.3877C172.82 39.3695 171.974 36.4072 171.974 32.501V1.03125H180.323V32.1592C180.323 32.8753 180.364 33.5671 180.445 34.2344C180.527 34.8854 180.714 35.4225 181.007 35.8457C181.3 36.2689 181.772 36.4805 182.423 36.4805C183.09 36.4805 183.57 36.277 183.863 35.8701C184.156 35.4469 184.335 34.9017 184.4 34.2344C184.482 33.5671 184.522 32.8753 184.522 32.1592V1.03125H192.872V32.501C192.872 36.4072 192.026 39.3695 190.333 41.3877C188.64 43.3896 186.004 44.3906 182.423 44.3906ZM206.373 44.3906C202.451 44.3906 199.618 43.4141 197.877 41.4609C196.152 39.5078 195.289 36.3991 195.289 32.1348V27.9355H203.785V33.3066C203.785 34.2995 203.932 35.0807 204.225 35.6504C204.534 36.2038 205.063 36.4805 205.812 36.4805C206.593 36.4805 207.13 36.2526 207.423 35.7969C207.732 35.3411 207.887 34.5924 207.887 33.5508C207.887 32.2324 207.757 31.1338 207.496 30.2549C207.236 29.3597 206.78 28.5133 206.129 27.7158C205.494 26.902 204.607 25.958 203.468 24.8838L199.61 21.2217C196.729 18.5036 195.289 15.3949 195.289 11.8955C195.289 8.2334 196.135 5.44206 197.828 3.52148C199.537 1.60091 202.003 0.640625 205.226 0.640625C209.164 0.640625 211.956 1.69043 213.6 3.79004C215.26 5.88965 216.09 9.07975 216.09 13.3604H207.35V10.4062C207.35 9.82031 207.179 9.36458 206.837 9.03906C206.511 8.71354 206.064 8.55078 205.494 8.55078C204.811 8.55078 204.306 8.74609 203.98 9.13672C203.671 9.51107 203.517 9.99935 203.517 10.6016C203.517 11.2038 203.679 11.8548 204.005 12.5547C204.33 13.2546 204.973 14.0602 205.934 14.9717L210.89 19.7324C211.882 20.6764 212.794 21.6774 213.624 22.7354C214.454 23.777 215.121 24.9977 215.626 26.3975C216.131 27.7809 216.383 29.4736 216.383 31.4756C216.383 35.512 215.634 38.6777 214.137 40.9727C212.656 43.2513 210.068 44.3906 206.373 44.3906Z" fill="#111111"/>
</svg>
